<svg width="15" height="15" viewBox="0 0 15 15" fill="none" xmlns="http://www.w3.org/2000/svg">
<g clip-path="url(#clip0_1810_1867)">
<path d="M10.625 1.25H4.375C2.64911 1.25 1.25 2.64911 1.25 4.375V10.625C1.25 12.3509 2.64911 13.75 4.375 13.75H10.625C12.3509 13.75 13.75 12.3509 13.75 10.625V4.375C13.75 2.64911 12.3509 1.25 10.625 1.25Z" stroke="#364153" stroke-width="1.66667" stroke-linecap="round" stroke-linejoin="round"/>
<path d="M10.0001 7.10619C10.0772 7.62635 9.98835 8.15758 9.74616 8.62433C9.50397 9.09108 9.12078 9.46958 8.65108 9.70599C8.18138 9.9424 7.64909 10.0247 7.12993 9.94115C6.61076 9.85761 6.13116 9.6125 5.75934 9.24067C5.38751 8.86884 5.14239 8.38924 5.05885 7.87008C4.97531 7.35091 5.0576 6.81863 5.29402 6.34893C5.53043 5.87923 5.90893 5.49603 6.37568 5.25385C6.84243 5.01166 7.37366 4.92281 7.89381 4.99994C8.42439 5.07862 8.91559 5.32586 9.29487 5.70514C9.67415 6.08441 9.92138 6.57562 10.0001 7.10619Z" stroke="#364153" stroke-width="1.66667" stroke-linecap="round" stroke-linejoin="round"/>
<path d="M10.9375 4.0625H10.9438" stroke="#364153" stroke-width="1.66667" stroke-linecap="round" stroke-linejoin="round"/>
</g>
<defs>
<clipPath id="clip0_1810_1867">
<rect width="15" height="15" fill="white"/>
</clipPath>
</defs>
</svg>
