<svg width="17" height="16" viewBox="0 0 17 16" fill="none" xmlns="http://www.w3.org/2000/svg">
<path d="M8.16356 1.53009C8.1946 1.47107 8.24255 1.42138 8.302 1.38664C8.36145 1.3519 8.43004 1.3335 8.50001 1.3335C8.56999 1.3335 8.63858 1.3519 8.69803 1.38664C8.75748 1.42138 8.80543 1.47107 8.83647 1.53009L10.4727 4.64942C10.5805 4.85474 10.7396 5.03236 10.9364 5.16706C11.1332 5.30176 11.3618 5.3895 11.6025 5.42276L15.2618 5.92676C15.3311 5.93621 15.3962 5.96374 15.4498 6.00622C15.5034 6.04871 15.5433 6.10446 15.5649 6.16716C15.5866 6.22987 15.5892 6.29703 15.5724 6.36105C15.5557 6.42507 15.5202 6.48339 15.47 6.52942L12.8237 8.95476C12.6492 9.11483 12.5186 9.31241 12.4432 9.53051C12.3678 9.74861 12.3498 9.98068 12.3909 10.2068L13.0156 13.6334C13.0279 13.6987 13.0204 13.7658 12.994 13.8272C12.9677 13.8886 12.9235 13.9418 12.8666 13.9808C12.8096 14.0197 12.7422 14.0428 12.672 14.0474C12.6018 14.052 12.5316 14.0379 12.4695 14.0068L9.19843 12.3881C8.9829 12.2816 8.7431 12.2259 8.49966 12.2259C8.25622 12.2259 8.01642 12.2816 7.80089 12.3881L4.53051 14.0068C4.46841 14.0377 4.39834 14.0516 4.32825 14.0469C4.25816 14.0422 4.19088 14.0191 4.13406 13.9802C4.07723 13.9413 4.03315 13.8882 4.00681 13.8269C3.98048 13.7656 3.97295 13.6986 3.9851 13.6334L4.60914 10.2074C4.65036 9.98125 4.6325 9.74902 4.5571 9.53079C4.4817 9.31255 4.35103 9.11486 4.17635 8.95476L1.53001 6.53009C1.47943 6.48411 1.44359 6.42569 1.42657 6.36147C1.40955 6.29726 1.41203 6.22984 1.43374 6.16689C1.45544 6.10393 1.49549 6.04799 1.54933 6.00541C1.60317 5.96284 1.66864 5.93536 1.73826 5.92609L5.39681 5.42276C5.63782 5.38976 5.86671 5.30213 6.06376 5.16742C6.26082 5.0327 6.42014 4.85494 6.52801 4.64942L8.16356 1.53009Z" fill="#FDC700" stroke="#FDC700" stroke-width="1.66667" stroke-linecap="round" stroke-linejoin="round"/>
</svg>
